<svg width="18" height="18" viewBox="0 0 18 18" fill="none" xmlns="http://www.w3.org/2000/svg">
<path d="M13.6687 11.6438C13.7472 11.7215 13.8095 11.8141 13.852 11.9161C13.8944 12.018 13.9163 12.1274 13.9163 12.2379C13.9163 12.3484 13.8944 12.4577 13.852 12.5597C13.8095 12.6617 13.7472 12.7542 13.6687 12.832L11.2852 15.2227C11.1259 15.3798 10.9112 15.4679 10.6875 15.4679C10.4638 15.4679 10.2491 15.3798 10.0898 15.2227L7.70625 12.832C7.5716 12.6703 7.50227 12.464 7.51187 12.2538C7.52147 12.0435 7.60929 11.8444 7.75812 11.6956C7.90694 11.5468 8.10602 11.459 8.31627 11.4494C8.52652 11.4398 8.73277 11.5091 8.89453 11.6438L9.84375 12.5859V9C9.84375 8.77622 9.93264 8.56161 10.0909 8.40338C10.2491 8.24514 10.4637 8.15625 10.6875 8.15625C10.9113 8.15625 11.1259 8.24514 11.2841 8.40338C11.4424 8.56161 11.5312 8.77622 11.5312 9V12.5859L12.4805 11.6438C12.5583 11.5653 12.6508 11.503 12.7528 11.4605C12.8548 11.4181 12.9641 11.3962 13.0746 11.3962C13.1851 11.3962 13.2945 11.4181 13.3964 11.4605C13.4984 11.503 13.591 11.5653 13.6687 11.6438ZM11.25 2.53125C10.082 2.53217 8.93604 2.84895 7.93342 3.44805C6.9308 4.04714 6.10887 4.90625 5.55469 5.93438C5.39141 5.91429 5.227 5.90489 5.0625 5.90625C3.79443 5.90625 2.5783 6.40999 1.68165 7.30665C0.784987 8.2033 0.28125 9.41943 0.28125 10.6875C0.28125 11.9556 0.784987 13.1717 1.68165 14.0684C2.5783 14.965 3.79443 15.4688 5.0625 15.4688H6.75C6.97378 15.4688 7.18839 15.3799 7.34662 15.2216C7.50486 15.0634 7.59375 14.8488 7.59375 14.625C7.59375 14.4012 7.50486 14.1866 7.34662 14.0284C7.18839 13.8701 6.97378 13.7812 6.75 13.7812H5.0625C4.24199 13.798 3.44841 13.4882 2.85635 12.9199C2.2643 12.3515 1.92225 11.5713 1.90547 10.7508C1.88869 9.93027 2.19854 9.13669 2.76686 8.54463C3.33518 7.95258 4.11542 7.61053 4.93594 7.59375C4.83437 8.05564 4.78251 8.52707 4.78125 9C4.78125 9.22378 4.87014 9.43839 5.02838 9.59662C5.18661 9.75485 5.40122 9.84375 5.625 9.84375C5.84878 9.84375 6.06339 9.75485 6.22162 9.59662C6.37986 9.43839 6.46875 9.22378 6.46875 9C6.46875 7.73193 6.97249 6.5158 7.86915 5.61915C8.7658 4.72249 9.98193 4.21875 11.25 4.21875C12.5181 4.21875 13.7342 4.72249 14.6309 5.61915C15.5275 6.5158 16.0312 7.73193 16.0312 9C16.0354 10.0352 15.6994 11.0431 15.075 11.8688C14.9407 12.0478 14.8831 12.2728 14.9147 12.4943C14.9464 12.7159 15.0647 12.9157 15.2438 13.05C15.3903 13.1586 15.5676 13.2178 15.75 13.2188C15.8811 13.2193 16.0105 13.189 16.1277 13.1304C16.245 13.0718 16.3468 12.9864 16.425 12.8812C17.1458 11.9202 17.5847 10.7774 17.6926 9.58093C17.8005 8.38446 17.5731 7.18158 17.0358 6.10709C16.4986 5.03259 15.6727 4.12893 14.6508 3.49735C13.6289 2.86578 12.4513 2.53125 11.25 2.53125Z" fill="black"/>
</svg>
