<svg width="18" height="18" viewBox="0 0 18 18" fill="none" xmlns="http://www.w3.org/2000/svg">
<path d="M14.3438 9C14.3438 9.22378 14.2549 9.43839 14.0966 9.59662C13.9384 9.75485 13.7238 9.84375 13.5 9.84375H4.5C4.27622 9.84375 4.06161 9.75485 3.90338 9.59662C3.74514 9.43839 3.65625 9.22378 3.65625 9C3.65625 8.77622 3.74514 8.56161 3.90338 8.40338C4.06161 8.24514 4.27622 8.15625 4.5 8.15625H13.5C13.7238 8.15625 13.9384 8.24514 14.0966 8.40338C14.2549 8.56161 14.3438 8.77622 14.3438 9ZM16.3125 4.78125H1.6875C1.46372 4.78125 1.24911 4.87014 1.09088 5.02838C0.932645 5.18661 0.84375 5.40122 0.84375 5.625C0.84375 5.84878 0.932645 6.06339 1.09088 6.22162C1.24911 6.37986 1.46372 6.46875 1.6875 6.46875H16.3125C16.5363 6.46875 16.7509 6.37986 16.9091 6.22162C17.0674 6.06339 17.1562 5.84878 17.1562 5.625C17.1562 5.40122 17.0674 5.18661 16.9091 5.02838C16.7509 4.87014 16.5363 4.78125 16.3125 4.78125ZM10.6875 11.5312H7.3125C7.08872 11.5312 6.87411 11.6201 6.71588 11.7784C6.55764 11.9366 6.46875 12.1512 6.46875 12.375C6.46875 12.5988 6.55764 12.8134 6.71588 12.9716C6.87411 13.1299 7.08872 13.2188 7.3125 13.2188H10.6875C10.9113 13.2188 11.1259 13.1299 11.2841 12.9716C11.4424 12.8134 11.5312 12.5988 11.5312 12.375C11.5312 12.1512 11.4424 11.9366 11.2841 11.7784C11.1259 11.6201 10.9113 11.5312 10.6875 11.5312Z" fill="black"/>
</svg>
