<svg width="18" height="18" viewBox="0 0 18 18" xmlns="http://www.w3.org/2000/svg">
<path d="M15.7711 12.2273C15.3703 11.5383 14.8922 10.2234 14.8922 7.875V7.37578C14.8922 4.10625 12.2695 1.42734 9.04219 1.40625H9C8.22504 1.40625 7.4577 1.55912 6.7419 1.85611C6.02611 2.1531 5.37594 2.58837 4.82861 3.137C4.28129 3.68563 3.84757 4.33684 3.55228 5.05334C3.257 5.76984 3.10596 6.53754 3.10781 7.3125V7.875C3.10781 10.2234 2.62969 11.5383 2.2289 12.2273C2.10605 12.4415 2.04145 12.6842 2.04157 12.9311C2.04168 13.1781 2.10648 13.4207 2.22953 13.6348C2.35258 13.8488 2.52958 14.027 2.74289 14.1514C2.9562 14.2757 3.19838 14.3421 3.44531 14.3438H5.92031C5.9936 15.1098 6.34972 15.821 6.91917 16.3385C7.48861 16.8561 8.2305 17.1429 9 17.1429C9.76951 17.1429 10.5114 16.8561 11.0808 16.3385C11.6503 15.821 12.0064 15.1098 12.0797 14.3438H14.5547C14.8016 14.3421 15.0438 14.2757 15.2571 14.1514C15.4704 14.027 15.6474 13.8488 15.7705 13.6348C15.8935 13.4207 15.9583 13.1781 15.9584 12.9311C15.9585 12.6842 15.894 12.4415 15.7711 12.2273ZM9 15.4688C8.67617 15.4675 8.36258 15.3551 8.11172 15.1503C7.86085 14.9455 7.68793 14.6608 7.62188 14.3438H10.3781C10.3121 14.6608 10.1391 14.9455 9.88828 15.1503C9.63742 15.3551 9.32384 15.4675 9 15.4688ZM3.90937 12.6562C4.63359 11.1375 4.79531 9.24609 4.79531 7.875V7.3125C4.79253 6.75889 4.89928 6.2102 5.10943 5.69802C5.31958 5.18584 5.62896 4.72029 6.01977 4.32817C6.41058 3.93605 6.8751 3.62511 7.38658 3.41326C7.89805 3.2014 8.44639 3.09282 9 3.09375H9.03516C11.3344 3.10781 13.2047 5.02734 13.2047 7.37578V7.875C13.2047 9.24609 13.3664 11.1375 14.0906 12.6562H3.90937Z" />
</svg>
