<svg width="24" height="24" viewBox="0 0 24 24" fill="none" xmlns="http://www.w3.org/2000/svg">
<path fill-rule="evenodd" clip-rule="evenodd" d="M13.0423 2.63625C12.4024 2.2456 11.5978 2.2456 10.9579 2.63625L4.84895 6.36588C3.5594 7.15317 3.57497 9.03115 4.8774 9.79696L11.0093 13.4024C11.6364 13.7712 12.4143 13.7703 13.0406 13.4001L19.1339 9.79908C20.4329 9.03137 20.4463 7.15655 19.1585 6.37028L13.0423 2.63625ZM19.6032 11.4709C20.0833 11.198 20.6938 11.3661 20.9666 11.8462C21.22 12.2921 21.0932 12.8503 20.6894 13.1463L20.5913 13.2097L13.9967 16.9572C13.167 17.4329 12.1543 17.4657 11.2965 17.0535L11.1151 16.9584L4.59833 13.207C4.11968 12.9314 3.95503 12.3201 4.23056 11.8414C4.48641 11.397 5.03184 11.2232 5.49169 11.4213L5.59612 11.4736L12.1095 15.2231C12.3498 15.3601 12.6429 15.377 12.8983 15.2725L13.0053 15.2202L19.6032 11.4709ZM19.5062 15.1307C19.9864 14.8579 20.5968 15.0259 20.8697 15.5061C21.1231 15.952 20.9963 16.5102 20.5924 16.8061L20.4943 16.8696L13.8998 20.617C13.07 21.0928 12.0573 21.1255 11.1995 20.7133L11.0182 20.6182L4.50137 16.8668C4.02273 16.5913 3.85807 15.9799 4.1336 15.5013C4.38945 15.0568 4.93489 14.8831 5.39473 15.0811L5.49916 15.1335L12.0126 18.8829C12.2528 19.02 12.5459 19.0369 12.8014 18.9323L12.9083 18.8801L19.5062 15.1307Z" fill="#7D8592"/>
</svg>
