<svg width="18" height="18" viewBox="0 0 18 18" xmlns="http://www.w3.org/2000/svg">
<path d="M8.99998 5.06248C8.22121 5.06248 7.45994 5.29341 6.81242 5.72607C6.1649 6.15873 5.66022 6.77368 5.3622 7.49317C5.06418 8.21265 4.98621 9.00435 5.13814 9.76815C5.29007 10.532 5.66508 11.2335 6.21575 11.7842C6.76641 12.3349 7.46801 12.7099 8.23181 12.8618C8.99561 13.0138 9.78731 12.9358 10.5068 12.6378C11.2263 12.3397 11.8412 11.8351 12.2739 11.1875C12.7065 10.54 12.9375 9.77875 12.9375 8.99998C12.9375 7.95569 12.5226 6.95418 11.7842 6.21575C11.0458 5.47733 10.0443 5.06248 8.99998 5.06248ZM8.99998 11.25C8.55497 11.25 8.11996 11.118 7.74995 10.8708C7.37993 10.6236 7.09155 10.2722 6.92125 9.86102C6.75095 9.44989 6.70639 8.99749 6.79321 8.56103C6.88003 8.12457 7.09432 7.72366 7.40899 7.40899C7.72366 7.09433 8.12457 6.88003 8.56102 6.79322C8.99748 6.7064 9.44988 6.75096 9.86101 6.92125C10.2721 7.09155 10.6235 7.37994 10.8708 7.74995C11.118 8.11996 11.25 8.55498 11.25 8.99998C11.2481 9.59615 11.0105 10.1674 10.5889 10.5889C10.1674 11.0105 9.59614 11.2481 8.99998 11.25ZM16.7343 10.4062L15.7429 9.08436V8.91561L16.7343 7.59373C16.8097 7.49086 16.8614 7.37258 16.8858 7.24737C16.9101 7.12217 16.9064 6.99313 16.875 6.86951C16.6933 6.19499 16.4238 5.54725 16.0734 4.94295C16.0104 4.83123 15.9224 4.73563 15.8163 4.66365C15.7102 4.59167 15.5888 4.54528 15.4617 4.52811L13.8375 4.29608L13.7039 4.16248L13.4718 2.53826C13.4547 2.41117 13.4083 2.2898 13.3363 2.18366C13.2643 2.07752 13.1687 1.98951 13.057 1.92654C12.4527 1.57612 11.805 1.30662 11.1304 1.12498C11.007 1.09151 10.8775 1.08679 10.752 1.11117C10.6265 1.13554 10.5082 1.18838 10.4062 1.26561L9.09138 2.24998H8.90857L7.59373 1.26561C7.49085 1.19021 7.37257 1.13851 7.24737 1.1142C7.12216 1.08989 6.99313 1.09357 6.86951 1.12498C6.19498 1.30662 5.54725 1.57612 4.94295 1.92654C4.83123 1.98951 4.73563 2.07752 4.66365 2.18366C4.59167 2.2898 4.54527 2.41117 4.5281 2.53826L4.29607 4.16248C4.24809 4.20342 4.20342 4.24809 4.16248 4.29608L2.53826 4.52811C2.41117 4.54528 2.28979 4.59167 2.18366 4.66365C2.07752 4.73563 1.98951 4.83123 1.92654 4.94295C1.57612 5.54725 1.30662 6.19499 1.12498 6.86951C1.09151 6.99295 1.08679 7.12241 1.11117 7.24796C1.13554 7.37351 1.18838 7.49179 1.26561 7.59373L2.25701 8.91561V9.08436L1.26561 10.4062C1.19021 10.5091 1.13851 10.6274 1.1142 10.7526C1.08989 10.8778 1.09357 11.0068 1.12498 11.1305C1.30662 11.805 1.57612 12.4527 1.92654 13.057C1.98951 13.1687 2.07752 13.2643 2.18366 13.3363C2.28979 13.4083 2.41117 13.4547 2.53826 13.4719L4.16248 13.7039L4.29607 13.8375L4.5281 15.4617C4.54527 15.5888 4.59167 15.7102 4.66365 15.8163C4.73563 15.9225 4.83123 16.0105 4.94295 16.0734C5.54725 16.4239 6.19498 16.6933 6.86951 16.875C6.94038 16.8951 7.01383 16.9046 7.08748 16.9031C7.27021 16.9041 7.44816 16.8448 7.59373 16.7344L8.90857 15.75H9.09138L10.4062 16.7344C10.5091 16.8098 10.6274 16.8615 10.7526 16.8858C10.8778 16.9101 11.0068 16.9064 11.1304 16.875C11.805 16.6933 12.4527 16.4239 13.057 16.0734C13.1687 16.0105 13.2643 15.9225 13.3363 15.8163C13.4083 15.7102 13.4547 15.5888 13.4718 15.4617L13.7109 13.8305L13.8304 13.7109L15.4617 13.4719C15.5888 13.4547 15.7102 13.4083 15.8163 13.3363C15.9224 13.2643 16.0104 13.1687 16.0734 13.057C16.4238 12.4527 16.6933 11.805 16.875 11.1305C16.9084 11.007 16.9132 10.8776 16.8888 10.752C16.8644 10.6265 16.8116 10.5082 16.7343 10.4062ZM14.8008 11.8617L13.3031 12.0797C13.1156 12.1074 12.9425 12.1964 12.8109 12.3328C12.6914 12.4594 12.4664 12.6914 12.3539 12.7898C12.2055 12.9237 12.1085 13.1053 12.0797 13.3031L11.8617 14.8008C11.6074 14.9295 11.3442 15.0399 11.0742 15.1312L9.86482 14.2172C9.70535 14.0978 9.50798 14.0403 9.30935 14.0555H8.6906C8.49211 14.0416 8.29517 14.0989 8.13513 14.2172L6.92576 15.1312C6.65574 15.0399 6.39257 14.9295 6.13826 14.8008L5.92029 13.3031C5.89148 13.1053 5.79449 12.9237 5.64607 12.7898C5.49041 12.6553 5.34471 12.5096 5.21014 12.3539C5.07622 12.2055 4.89467 12.1085 4.69685 12.0797L3.1992 11.8617C3.07047 11.6074 2.96003 11.3442 2.86873 11.0742L3.78279 9.86483C3.89485 9.71205 3.95408 9.52693 3.95154 9.33749C3.94451 9.1617 3.93748 8.83827 3.94451 8.69061C3.95837 8.49211 3.90103 8.29518 3.78279 8.13514L2.86873 6.92577C2.96003 6.65575 3.07047 6.39258 3.1992 6.13827L4.69685 5.9203C4.89467 5.89149 5.07622 5.7945 5.21014 5.64608C5.34471 5.49041 5.49041 5.34472 5.64607 5.21014C5.79449 5.07622 5.89148 4.89468 5.92029 4.69686L6.13826 3.1992C6.39257 3.07047 6.65574 2.96004 6.92576 2.86873L8.13513 3.78279C8.2946 3.90218 8.49197 3.95964 8.6906 3.94451C8.89451 3.93748 9.10545 3.93748 9.30935 3.94451C9.50798 3.95964 9.70535 3.90218 9.86482 3.78279L11.0742 2.86873C11.3442 2.96004 11.6074 3.07047 11.8617 3.1992L12.0797 4.69686C12.1085 4.89468 12.2055 5.07622 12.3539 5.21014C12.5095 5.34472 12.6552 5.49041 12.7898 5.64608C12.9237 5.7945 13.1053 5.89149 13.3031 5.9203L14.8008 6.13827C14.9295 6.39258 15.0399 6.65575 15.1312 6.92577L14.2172 8.13514C14.1042 8.28707 14.0471 8.47333 14.0554 8.66248C14.0554 8.83827 14.0625 9.1617 14.0554 9.30936C14.0403 9.50799 14.0978 9.70536 14.2172 9.86483L15.1312 11.0742C15.0399 11.3442 14.9295 11.6074 14.8008 11.8617Z" />
</svg>
