<svg width="4" height="16" viewBox="0 0 4 16" fill="none" xmlns="http://www.w3.org/2000/svg">
<path d="M3.96875 8C3.96875 8.38938 3.85328 8.77002 3.63695 9.09378C3.42062 9.41754 3.11315 9.66988 2.75341 9.81889C2.39366 9.9679 1.99782 10.0069 1.61592 9.93092C1.23402 9.85496 0.883219 9.66745 0.607884 9.39212C0.33255 9.11679 0.145044 8.76599 0.0690798 8.38409C-0.00688475 8.00219 0.032103 7.60634 0.181113 7.24659C0.330123 6.88685 0.582462 6.57938 0.906221 6.36305C1.22998 6.14672 1.61062 6.03125 2 6.03125C2.52157 6.0331 3.02126 6.24112 3.39007 6.60993C3.75888 6.97874 3.96689 7.47843 3.96875 8ZM2 4.34375C2.38938 4.34375 2.77002 4.22829 3.09378 4.01196C3.41754 3.79563 3.66988 3.48815 3.81888 3.12841C3.96789 2.76867 4.00688 2.37282 3.93092 1.99092C3.85495 1.60902 3.66745 1.25822 3.39211 0.982885C3.11678 0.70755 2.76598 0.520045 2.38408 0.44408C2.00218 0.368115 1.60633 0.407103 1.24659 0.556113C0.88685 0.705123 0.579374 0.957463 0.363045 1.28122C0.146716 1.60498 0.0312511 1.98562 0.0312511 2.375C0.0331039 2.89658 0.24112 3.39626 0.609931 3.76507C0.978742 4.13388 1.47843 4.3419 2 4.34375ZM2 11.6563C1.61062 11.6563 1.22998 11.7717 0.906221 11.988C0.582462 12.2044 0.330123 12.5119 0.181113 12.8716C0.032103 13.2313 -0.00688475 13.6272 0.0690798 14.0091C0.145044 14.391 0.33255 14.7418 0.607884 15.0171C0.883219 15.2925 1.23402 15.48 1.61592 15.5559C1.99782 15.6319 2.39366 15.5929 2.75341 15.4439C3.11315 15.2949 3.42062 15.0425 3.63695 14.7188C3.85328 14.395 3.96875 14.0144 3.96875 13.625C3.96689 13.1034 3.75888 12.6037 3.39007 12.2349C3.02126 11.8661 2.52157 11.6581 2 11.6563Z" fill="black"/>
</svg>
