<svg width="17" height="12" viewBox="0 0 17 12" fill="none" xmlns="http://www.w3.org/2000/svg">
<path d="M16.4895 1.4375V5.9375C16.4895 6.16128 16.4006 6.37589 16.2424 6.53412C16.0841 6.69235 15.8695 6.78125 15.6458 6.78125C15.422 6.78125 15.2074 6.69235 15.0491 6.53412C14.8909 6.37589 14.802 6.16128 14.802 5.9375V3.47656L9.49341 8.78516C9.41502 8.86382 9.32187 8.92623 9.21932 8.96881C9.11676 9.0114 9.0068 9.03332 8.89575 9.03332C8.7847 9.03332 8.67474 9.0114 8.57218 8.96881C8.46962 8.92623 8.37648 8.86382 8.29809 8.78516L6.08325 6.57031L1.6184 11.0352C1.45918 11.1923 1.24447 11.2804 1.02075 11.2804C0.79703 11.2804 0.582314 11.1923 0.423092 11.0352C0.344432 10.9568 0.28202 10.8636 0.239434 10.7611C0.196848 10.6585 0.174927 10.5485 0.174927 10.4375C0.174927 10.3265 0.196848 10.2165 0.239434 10.1139C0.28202 10.0114 0.344432 9.91823 0.423092 9.83984L5.48559 4.77734C5.56398 4.69868 5.65712 4.63627 5.75968 4.59369C5.86224 4.5511 5.9722 4.52918 6.08325 4.52918C6.1943 4.52918 6.30426 4.5511 6.40681 4.59369C6.50937 4.63627 6.60252 4.69868 6.68091 4.77734L8.89575 6.99219L13.6067 2.28125H11.1458C10.922 2.28125 10.7074 2.19236 10.5491 2.03412C10.3909 1.87589 10.302 1.66128 10.302 1.4375C10.302 1.21372 10.3909 0.999112 10.5491 0.840879C10.7074 0.682645 10.922 0.59375 11.1458 0.59375H15.6458C15.8695 0.59375 16.0841 0.682645 16.2424 0.840879C16.4006 0.999112 16.4895 1.21372 16.4895 1.4375Z" fill="url(#paint0_linear_13_1560)"/>
<defs>
<linearGradient id="paint0_linear_13_1560" x1="14.3736" y1="12.9224" x2="-2.13215" y2="11.3194" gradientUnits="userSpaceOnUse">
<stop stop-color="#35C3F3"/>
<stop offset="0.264988" stop-color="#8B9FE8"/>
<stop offset="0.525409" stop-color="#E681D8"/>
<stop offset="0.744796" stop-color="#FFA9A4"/>
<stop offset="1" stop-color="#FED2CE"/>
<stop offset="1" stop-color="#FED2CE"/>
</linearGradient>
</defs>
</svg>
